<svg width="58" height="52" viewBox="0 0 58 52" fill="none" xmlns="http://www.w3.org/2000/svg">
<path d="M54.1913 18.3547C54.7217 18.3547 55.2304 18.144 55.6055 17.7689C55.9806 17.3938 56.1913 16.8851 56.1913 16.3547C56.1913 15.8242 55.9806 15.3155 55.6055 14.9405C55.2304 14.5654 54.7217 14.3547 54.1913 14.3547V18.3547ZM28.6713 49.368L26.7779 50.0187C26.9125 50.414 27.1674 50.7573 27.507 51.0004C27.8465 51.2435 28.2537 51.3742 28.6713 51.3742C29.0889 51.3742 29.496 51.2435 29.8356 51.0004C30.1751 50.7573 30.43 50.414 30.5646 50.0187L28.6713 49.368ZM3.1566 14.3547C2.62617 14.3547 2.11746 14.5654 1.74239 14.9405C1.36732 15.3155 1.1566 15.8242 1.1566 16.3547C1.1566 16.8851 1.36732 17.3938 1.74239 17.7689C2.11746 18.144 2.62617 18.3547 3.1566 18.3547V14.3547ZM44.6099 5.24533L52.4019 14.1253L55.4099 11.4853L47.6179 2.60533L44.6099 5.24533ZM52.5699 18.9093L31.5726 46.5493L34.7593 48.968L55.7539 21.328L52.5699 18.9093ZM25.7699 46.5493L4.7726 18.9093L1.58594 21.328L22.5833 48.968L25.7699 46.5493ZM4.93793 14.1227L12.7299 5.24533L9.7246 2.60533L1.92993 11.4853L4.93793 14.1227ZM34.3406 4H41.8766V0H34.3406V4ZM40.0126 18.3547H54.1859V14.3547H40.0126V18.3547ZM32.4819 2.736L38.1513 17.088L41.8713 15.6213L36.2019 1.264L32.4819 2.736ZM30.5619 50.0187L41.9033 17.0053L38.1193 15.704L26.7806 48.7173L30.5619 50.0187ZM15.4713 4H23.6313V0H15.4713V4ZM23.6313 4H34.3406V0H23.6313V4ZM3.15927 18.3547H17.3326V14.3547H3.1566L3.15927 18.3547ZM17.3326 18.3547H40.0126V14.3547H17.3326V18.3547ZM21.8019 1.19733L15.5006 15.5467L19.1619 17.1547L25.4633 2.8L21.8019 1.19733ZM30.5646 48.7173L19.2233 15.7067L15.4393 17.008L26.7806 50.0213L30.5646 48.7173ZM4.77794 18.912C4.25016 18.2169 3.97793 17.3612 4.00708 16.4889C4.03622 15.6166 4.36494 14.781 4.93793 14.1227L1.92993 11.4853C0.747933 12.8358 0.0679868 14.5501 0.00483215 16.3437C-0.0583225 18.1372 0.499181 19.8977 1.58327 21.328L4.77794 18.912ZM31.5779 46.552C31.2402 47.0029 30.802 47.369 30.2982 47.6211C29.7943 47.8732 29.2387 48.0044 28.6753 48.0044C28.1119 48.0044 27.5562 47.8732 27.0524 47.6211C26.5485 47.369 26.1104 47.0029 25.7726 46.552L22.5859 48.9707C23.2968 49.9128 24.2167 50.6771 25.2731 51.2034C26.3295 51.7297 27.4937 52.0036 28.6739 52.0036C29.8542 52.0036 31.0183 51.7297 32.0748 51.2034C33.1312 50.6771 34.051 49.9128 34.7619 48.9707L31.5779 46.552ZM52.4019 14.1253C53.5833 15.4693 53.6579 17.4853 52.5726 18.912L55.7566 21.3307C56.84 19.9006 57.3971 18.1407 57.334 16.3477C57.2708 14.5547 56.5913 12.8356 55.4099 11.4853L52.4019 14.1253ZM47.6206 2.61067C46.9044 1.79239 46.0217 1.13644 45.0316 0.686689C44.0415 0.236933 42.9667 0.00372817 41.8793 0.00266647V4.00267C42.9193 4.00267 43.9139 4.45333 44.6126 5.248L47.6206 2.61067ZM12.7353 5.25067C13.0758 4.86007 13.4958 4.54669 13.9672 4.33147C14.4385 4.11624 14.9504 4.00415 15.4686 4.00267V0.00266647C13.2686 0.00266647 11.1806 0.954667 9.72993 2.61067L12.7353 5.25067Z" fill="#BFA470"/>
</svg>
